<?xml version="1.0" standalone="no"?>
<!DOCTYPE svg PUBLIC "-//W3C//DTD SVG 20010904//EN"
 "http://www.w3.org/TR/2001/REC-SVG-20010904/DTD/svg10.dtd">
<svg version="1.0" xmlns="http://www.w3.org/2000/svg"
 width="1024.000000pt" height="1024.000000pt" viewBox="0 0 1024.000000 1024.000000"
 preserveAspectRatio="xMidYMid meet">
<metadata>
Created by potrace 1.16, written by Peter Selinger 2001-2019
</metadata>
<g transform="translate(0.000000,1024.000000) scale(0.100000,-0.100000)"
fill="#000000" stroke="none">
<path d="M0 7296 l0 -2945 38 6 c20 3 38 9 40 13 2 5 13 6 25 4 21 -4 21 -4 2
4 -12 6 -30 6 -44 0 -16 -6 -28 -5 -35 2 -8 8 -6 9 6 5 10 -4 18 -2 18 4 0 6
7 8 15 5 9 -4 15 0 15 10 0 9 7 16 16 16 8 0 12 5 9 10 -3 5 -1 10 4 10 6 0
12 -10 12 -22 1 -17 2 -19 6 -5 3 13 15 17 46 17 30 0 38 3 27 9 -8 6 -27 7
-42 4 -17 -3 -28 -1 -28 6 0 10 29 16 53 12 5 -1 6 2 3 7 -3 5 -25 8 -48 6
-33 -2 -39 0 -25 8 10 5 25 7 33 4 13 -5 19 9 15 40 -1 6 5 11 12 11 16 0 18
-29 3 -40 -6 -5 -2 -7 12 -4 17 4 22 1 22 -14 0 -13 7 -19 23 -18 17 1 18 2 4
6 -10 3 -16 10 -14 16 2 7 -3 17 -12 24 -14 10 -14 14 -2 25 8 8 11 8 7 1 -3
-6 -2 -14 4 -18 5 -3 10 0 10 9 0 11 10 14 40 12 25 -2 40 1 40 8 0 8 -14 11
-38 9 -35 -2 -35 -2 8 8 25 6 55 10 68 11 44 1 21 14 -29 16 -74 2 -74 12 -1
12 34 0 62 3 62 8 0 4 -24 5 -52 3 -65 -4 -60 7 6 13 27 3 52 8 55 12 3 4 -9
4 -27 2 -18 -3 -35 -2 -37 2 -2 3 16 7 41 9 30 1 44 -2 44 -11 0 -9 3 -9 10 2
15 24 13 25 -36 21 -25 -2 -50 1 -55 6 -6 6 1 8 18 6 15 -2 46 1 68 6 l40 11
-42 -4 c-24 -2 -43 0 -43 5 0 5 42 10 93 11 l92 2 -80 6 c-79 6 -79 6 -20 8
38 2 55 5 46 11 -11 7 -11 9 0 14 10 4 10 6 2 6 -7 1 -13 10 -13 21 0 11 3 19
8 19 22 -4 42 2 37 11 -3 6 6 11 22 11 22 2 20 3 -12 9 -36 6 -37 7 -10 9 17
2 24 5 17 8 -17 7 -15 20 3 20 8 0 15 -6 15 -14 0 -7 7 -13 15 -13 8 0 15 6
15 13 0 8 4 7 10 -3 8 -13 10 -13 10 2 0 11 6 15 21 11 11 -3 18 -11 16 -17
-4 -9 5 -11 27 -7 26 4 28 6 8 9 -15 2 -22 9 -18 17 3 8 1 17 -4 20 -4 3 -10
1 -12 -4 -1 -5 -15 -7 -30 -4 -29 6 -29 33 1 33 14 0 14 -2 1 -10 -13 -9 -13
-10 0 -9 21 1 67 17 53 18 -16 1 -12 41 5 41 7 0 10 -5 6 -12 -4 -7 -3 -8 5
-4 6 4 9 12 6 17 -4 5 -1 9 5 9 7 0 9 -7 6 -15 -4 -10 2 -19 17 -26 l22 -10
-22 5 c-25 4 -30 -10 -12 -34 9 -13 10 -12 5 3 -4 13 0 17 17 17 16 0 19 -3 8
-9 -11 -7 -9 -10 8 -16 11 -3 21 -11 21 -16 0 -6 -4 -8 -8 -5 -5 3 -9 -1 -9
-9 0 -8 3 -12 7 -10 3 2 12 -1 20 -6 13 -8 13 -10 0 -20 -13 -8 -12 -10 4 -7
13 2 40 -18 80 -61 133 -139 263 -207 440 -227 89 -11 86 -13 86 55 l0 59 -82
7 c-178 15 -308 64 -412 156 -235 210 -309 568 -184 884 18 44 40 92 50 107
10 14 18 30 18 35 0 5 14 25 30 43 17 18 30 38 30 43 0 5 9 7 20 4 12 -3 20
-1 19 6 -1 7 -1 19 0 27 1 13 2 13 11 0 9 -13 11 -13 21 0 8 12 9 9 3 -10 -4
-13 -12 -30 -19 -36 -28 -29 -127 -245 -146 -319 -23 -92 -28 -269 -10 -350
35 -152 105 -283 196 -363 81 -71 272 -151 291 -121 3 5 -5 9 -18 9 -19 0 -20
2 -8 11 13 9 12 10 -2 5 -22 -7 -50 3 -42 15 3 5 -4 9 -14 9 -11 0 -22 7 -26
15 -3 8 -12 15 -21 15 -10 0 -15 7 -13 17 2 10 -1 18 -7 18 -5 0 -16 4 -24 9
-11 7 -11 10 0 17 11 7 10 9 -4 9 -10 0 -21 8 -24 18 -4 9 -15 23 -26 31 -15
11 -16 15 -6 22 10 6 8 9 -8 9 -16 0 -21 5 -18 20 3 14 -2 20 -13 20 -15 0
-15 2 -2 10 11 7 11 10 2 10 -7 0 -11 4 -8 9 3 5 -1 12 -10 15 -8 3 -12 10 -9
16 3 6 -1 18 -11 27 -15 16 -15 17 2 24 14 6 15 8 4 9 -9 1 -5 5 9 11 13 5 36
8 53 7 27 -2 28 -3 11 -16 -17 -13 -17 -13 2 -10 14 2 19 -2 17 -14 -2 -10 2
-18 8 -18 5 0 10 -7 10 -16 0 -8 5 -12 10 -9 17 10 11 -7 -7 -22 -10 -8 -13
-12 -7 -9 7 3 23 -3 35 -14 23 -18 23 -19 4 -21 -13 -1 -10 -4 10 -8 17 -4 29
-12 28 -19 -2 -7 5 -12 15 -12 14 0 15 -2 3 -9 -12 -8 -9 -11 11 -16 14 -4 28
-16 31 -27 3 -11 10 -17 15 -14 5 3 16 -1 23 -10 11 -13 64 -45 94 -55 5 -2 9
-8 7 -14 -1 -5 3 -3 10 5 8 9 25 14 41 12 15 -2 27 2 27 8 0 6 8 9 18 6 9 -2
53 -8 97 -12 44 -4 91 -8 105 -10 14 -1 29 -3 33 -3 5 -1 5 -6 1 -12 -4 -8 -9
-7 -16 2 -6 10 -7 7 -3 -8 4 -15 2 -23 -6 -23 -7 0 -9 -3 -6 -6 4 -4 14 -1 24
7 17 13 17 13 0 -13 -10 -16 -13 -28 -7 -28 6 0 9 -8 6 -18 -4 -10 0 -26 7
-37 12 -16 14 -11 14 41 0 32 4 103 8 157 l8 98 -64 -8 c-110 -13 -179 0 -179
34 0 10 -7 12 -20 8 -16 -5 -20 -2 -20 17 0 17 -3 19 -9 9 -7 -11 -10 -11 -17
2 -5 8 -16 17 -24 19 -8 2 -27 21 -42 43 -27 39 -36 61 -20 51 4 -2 14 -1 22
5 11 6 5 9 -20 9 -26 0 -31 3 -20 10 13 9 13 10 0 11 -10 0 -8 3 5 9 16 7 16
9 4 9 -9 1 -20 8 -23 17 -4 11 -2 15 8 11 8 -3 17 0 19 7 3 8 18 10 43 7 l39
-5 -40 -7 -40 -6 35 -3 35 -2 -30 -8 -30 -8 35 -2 35 -2 -40 -12 -40 -13 60 4
c33 3 55 1 49 -4 -15 -12 -25 -43 -13 -43 6 0 7 -4 4 -10 -4 -6 7 -10 24 -10
18 0 31 5 31 13 0 17 58 49 66 36 3 -6 13 -8 23 -4 11 4 13 3 6 -4 -6 -6 -25
-11 -43 -13 -19 -1 -36 -7 -39 -12 -4 -5 3 -7 15 -4 15 4 19 2 15 -8 -3 -8 0
-14 6 -14 6 0 11 7 11 15 0 8 5 15 11 15 6 0 9 -6 6 -14 -4 -9 4 -13 23 -14
23 0 28 3 23 16 -4 13 -3 14 5 3 6 -8 15 -10 23 -6 8 5 11 4 6 0 -4 -5 0 -16
9 -26 15 -17 14 -19 -10 -25 -27 -6 -27 -16 -1 -20 8 -1 15 2 15 8 0 7 5 7 13
-1 8 -6 17 -8 20 -5 3 3 29 8 57 11 l51 5 -2 -219 c-2 -155 0 -224 9 -240 14
-25 74 -48 105 -39 12 4 88 9 168 12 107 4 149 3 154 -6 8 -13 9 -236 0 -249
-6 -11 -146 -21 -323 -23 -125 -1 -147 -4 -168 -20 -27 -22 -31 -59 -8 -82 15
-15 34 -20 79 -18 11 0 112 4 225 7 113 3 215 8 228 11 28 6 62 59 62 97 0 25
3 27 38 27 21 0 43 5 50 12 8 8 12 53 12 135 l0 123 138 1 c75 0 166 2 202 4
36 2 225 9 420 14 195 6 420 13 500 16 80 2 224 7 320 10 96 3 220 8 275 10
55 3 292 12 527 20 376 13 436 17 505 36 142 39 315 13 437 -65 101 -65 184
-171 228 -292 30 -82 36 -236 13 -324 -67 -258 -295 -440 -552 -440 -152 0
-284 48 -383 140 l-53 49 -296 -9 c-163 -5 -474 -14 -691 -20 -217 -5 -486
-13 -598 -16 l-203 -7 3 36 3 36 225 5 c124 3 335 10 470 16 135 5 301 12 370
15 69 2 226 7 350 10 124 3 243 8 266 11 l41 5 -21 54 -21 55 -90 0 c-49 0
-229 -5 -400 -10 -170 -5 -440 -11 -600 -15 -159 -3 -356 -8 -437 -11 l-148
-5 0 40 0 41 158 1 c86 1 168 3 182 4 14 2 153 6 310 10 157 4 292 9 300 10 8
2 169 6 358 10 l342 8 0 65 0 65 -227 -7 c-126 -4 -367 -11 -538 -16 -170 -6
-440 -11 -600 -13 l-290 -2 -3 33 -3 32 114 0 c100 0 682 20 1022 34 66 3 197
8 290 11 257 9 247 6 268 64 25 71 25 71 -45 66 -35 -3 -310 -12 -613 -20
-302 -8 -602 -17 -665 -20 -97 -4 -315 -8 -357 -6 -8 1 -13 14 -13 31 0 27 3
30 33 31 17 1 43 3 57 4 14 1 99 5 190 9 91 4 206 9 255 11 50 3 227 10 395
15 168 6 395 15 505 20 110 5 229 10 263 10 l64 0 53 57 c30 32 52 59 50 61
-1 2 -270 -4 -596 -13 -327 -8 -776 -20 -999 -25 -601 -14 -863 -22 -885 -25
-11 -2 -39 -4 -62 -4 l-42 -1 1 -100 c1 -112 -12 -145 -60 -156 -15 -3 -32 -7
-39 -9 -6 -2 -21 -24 -32 -50 -12 -27 -32 -52 -50 -62 -27 -16 -29 -20 -24
-68 4 -42 1 -56 -21 -88 -24 -35 -26 -46 -26 -145 0 -59 -4 -112 -8 -119 -11
-18 -127 -36 -189 -30 -38 4 -72 16 -106 37 -27 17 -52 29 -54 26 -9 -8 68
-115 97 -136 59 -42 102 -53 207 -54 62 -1 99 2 96 8 -4 5 1 7 10 3 9 -3 19
-2 23 4 3 5 14 7 25 4 15 -5 19 -1 19 14 0 12 7 21 15 21 9 0 12 6 8 16 -3 9
-1 19 6 23 14 9 17 39 5 66 -7 19 -7 19 10 3 9 -10 25 -22 34 -28 15 -8 15
-11 2 -20 -12 -8 -10 -10 10 -11 23 -1 23 -2 -5 -9 -24 -6 -25 -8 -8 -9 17 -1
21 -5 16 -18 -5 -12 -3 -14 7 -8 9 6 12 4 8 -6 -4 -10 2 -15 18 -17 14 -1 36
-9 49 -18 14 -9 25 -12 25 -6 0 15 32 24 43 13 7 -7 16 -7 29 0 15 8 18 22 18
76 l0 66 -109 -5 c-98 -5 -110 -4 -125 13 -19 22 -21 33 -4 23 8 -5 9 -2 3 12
-13 30 -18 104 -7 104 5 0 12 7 15 14 4 11 1 13 -11 9 -14 -5 -14 -3 3 16 18
21 20 21 32 5 9 -12 13 -14 13 -4 0 18 11 6 14 -16 2 -10 -3 -25 -11 -32 -8
-8 -11 -17 -8 -21 9 -8 36 30 29 40 -3 5 -2 9 3 9 4 0 14 4 21 9 10 6 6 19
-19 59 -28 45 -31 58 -27 102 6 58 7 59 42 66 24 4 26 2 26 -34 0 -28 7 -45
24 -61 22 -21 25 -22 60 -7 40 17 42 26 22 103 -15 57 -8 73 31 73 97 0 153
-123 103 -224 -29 -61 -78 -89 -149 -89 l-58 1 -22 -44 c-11 -25 -21 -47 -21
-49 0 -3 47 -5 105 -5 l105 0 0 -80 c0 -70 2 -80 18 -80 52 1 163 84 147 111
-5 7 -4 10 3 5 6 -3 16 3 22 14 6 11 8 20 5 20 -4 0 0 7 8 15 15 15 18 78 21
416 1 121 5 119 -166 119 l-139 0 3 32 3 33 153 3 c149 2 153 2 176 -22 42
-41 48 -89 44 -355 l-3 -246 -28 -47 c-28 -48 -89 -104 -142 -131 -43 -22
-167 -57 -201 -57 -16 0 -24 -4 -19 -8 13 -9 16 -42 4 -42 -5 0 -9 -4 -9 -10
0 -5 7 -10 15 -10 8 0 19 -10 26 -21 6 -12 7 -19 2 -16 -4 2 -17 1 -28 -4 -18
-7 -17 -8 7 -8 14 -1 29 -7 31 -13 4 -10 6 -10 6 0 1 6 9 12 19 12 15 0 15 -2
2 -11 -12 -8 -10 -10 10 -5 21 4 23 3 9 -7 -15 -11 -15 -14 -1 -27 14 -13 15
-12 9 3 -6 16 -1 18 37 16 27 -2 51 3 61 11 15 12 19 12 29 0 6 -8 20 -16 31
-18 l20 -4 -20 17 c-20 15 -20 16 5 13 14 -1 35 3 47 10 26 14 44 16 23 2 -11
-7 -11 -10 -2 -10 7 0 10 -5 6 -11 -5 -9 1 -10 22 -5 27 6 28 5 10 -9 -11 -8
-26 -15 -34 -15 -7 0 -11 -4 -8 -9 4 -5 -7 -12 -24 -16 -16 -4 -30 -11 -30
-16 0 -5 -3 -8 -7 -8 -18 3 -33 -2 -33 -10 0 -4 11 -6 25 -3 23 4 35 -11 18
-21 -5 -2 -3 -2 4 -1 6 2 14 0 16 -4 5 -9 -1 13 -9 32 -7 18 28 26 49 11 9 -7
14 -15 10 -18 -3 -4 8 -7 25 -7 32 0 43 -13 20 -24 -7 -3 -1 -4 14 -2 15 1 25
-1 22 -5 -3 -5 -14 -9 -25 -9 -10 0 -19 -4 -19 -9 0 -6 9 -8 20 -6 11 2 20 0
20 -6 0 -5 -21 -10 -47 -11 -41 -1 -38 -2 22 -8 43 -4 55 -7 32 -8 -21 -1 -36
-6 -33 -10 2 -4 26 -7 53 -5 38 2 44 0 30 -8 -10 -6 -24 -9 -30 -6 -7 2 -21 1
-32 -4 -13 -5 0 -7 35 -5 30 2 56 9 58 15 2 6 20 10 40 9 l37 -1 -35 -5 c-29
-3 -31 -6 -15 -12 14 -5 -1 -9 -47 -14 -38 -4 -68 -12 -68 -17 0 -5 11 -7 25
-3 15 4 25 2 25 -4 0 -6 -17 -13 -37 -15 -21 -2 -3 -3 39 -2 43 1 96 -1 118
-5 31 -6 40 -4 40 6 0 8 -11 14 -27 15 -29 1 -91 -2 -107 -4 -5 -1 -10 3 -12
9 -5 12 124 13 143 1 6 -4 19 0 28 10 13 13 18 14 25 3 4 -7 15 -10 24 -7 8 3
18 2 21 -3 4 -6 -3 -11 -14 -11 -29 -2 -34 -3 -48 -12 -7 -5 -13 -5 -13 0 0 4
-4 1 -10 -7 -7 -11 -30 -14 -99 -13 -59 1 -91 -2 -91 -9 0 -7 13 -8 35 -5 26
4 35 2 35 -9 0 -8 7 -14 15 -14 8 0 15 5 15 11 0 5 -6 7 -12 3 -8 -4 -8 -2 1
7 10 11 15 11 18 2 4 -10 10 -10 26 -1 19 10 20 9 10 -4 -10 -12 -10 -15 2
-15 8 0 15 4 15 9 0 5 5 6 11 3 6 -4 8 -13 5 -20 -3 -8 4 -17 15 -20 10 -4 17
-11 13 -16 -4 -7 8 -8 33 -4 35 7 37 6 18 -8 -10 -8 -25 -13 -32 -10 -7 3 -13
0 -13 -6 0 -15 47 -14 52 1 3 7 9 8 19 2 8 -5 54 -7 103 -6 115 3 107 -7 -9
-13 -48 -2 -90 -6 -93 -9 -6 -6 61 -11 117 -8 45 3 35 -6 -20 -18 -42 -9 -41
-9 19 -6 34 2 62 1 62 -3 0 -4 -17 -8 -37 -9 -70 -4 -133 -14 -133 -22 0 -4
12 -5 26 -2 18 3 25 1 20 -6 -4 -6 2 -8 16 -4 21 5 21 6 2 13 -14 6 -11 8 16
8 26 1 31 -2 20 -9 -13 -8 -13 -10 2 -10 9 0 18 4 20 9 2 4 22 10 46 14 23 3
40 1 37 -3 -3 -5 -1 -11 4 -14 5 -4 11 -1 14 6 2 7 2 0 -1 -15 -4 -27 -2 -28
27 -24 17 3 31 2 31 -3 0 -4 -19 -11 -42 -15 l-43 -7 30 -11 c21 -7 30 -7 33
1 2 7 8 12 13 12 6 0 7 -5 3 -11 -4 -8 1 -9 17 -5 19 6 21 5 8 -3 -9 -6 -26
-12 -38 -14 -11 -2 -24 -7 -28 -11 -5 -5 4 -6 20 -2 16 4 27 2 27 -4 0 -5 -16
-10 -35 -10 -19 0 -35 -4 -35 -9 0 -4 17 -6 38 -4 20 3 45 5 55 6 18 1 25 17
7 17 -5 0 -10 5 -10 11 0 5 4 8 9 5 5 -3 11 5 13 19 4 20 1 25 -15 25 -14 0
-18 5 -14 20 7 26 -6 33 -29 15 -23 -17 -34 -19 -34 -5 0 6 8 10 18 10 11 0
13 3 5 8 -7 4 9 7 35 7 l47 0 -20 -20 -20 -20 23 -3 c14 -2 22 -10 22 -23 0
-13 7 -19 23 -19 20 -1 19 -2 -8 -15 l-30 -15 33 3 c17 2 32 0 32 -5 0 -4 -6
-8 -14 -8 -7 0 -16 -9 -19 -20 -4 -15 0 -20 14 -20 15 0 18 -5 15 -25 -4 -23
-2 -25 17 -20 21 6 21 6 2 -6 -11 -7 -34 -12 -51 -10 -18 1 -35 -2 -39 -8 -3
-6 2 -11 12 -12 12 0 8 -5 -12 -14 -16 -7 -33 -11 -37 -8 -5 2 -8 0 -8 -6 0
-12 40 -11 57 2 7 5 26 6 43 2 23 -5 30 -3 30 8 0 10 7 13 21 10 12 -3 18 -11
15 -19 -5 -13 36 -19 109 -15 l20 1 -20 -9 c-11 -5 -28 -7 -37 -5 -22 4 -19
-26 4 -50 15 -15 17 -15 21 2 2 9 4 0 4 -20 0 -31 -4 -38 -20 -38 -11 0 -18
-3 -14 -6 10 -11 86 7 83 19 -1 7 -1 9 1 5 10 -17 33 -7 33 15 0 16 3 18 9 8
5 -8 14 -10 21 -6 9 5 11 4 6 -3 -4 -7 -1 -12 6 -12 9 0 10 -2 1 -8 -13 -8 2
-35 27 -45 9 -3 5 -6 -10 -6 -35 -1 -52 17 -39 41 12 21 2 24 -20 4 -9 -8 -47
-19 -86 -24 -65 -9 -67 -10 -25 -12 l45 -3 -45 -7 -45 -7 45 -2 c28 -2 38 -5
28 -9 -21 -8 -11 -28 17 -35 11 -2 -9 -5 -44 -6 -35 0 -62 -4 -58 -7 3 -4 50
-6 104 -6 64 0 89 -2 73 -8 -22 -7 -20 -8 15 -9 22 -1 47 -6 55 -11 10 -6 -3
-7 -40 -3 -30 3 -56 10 -58 15 -2 4 -18 7 -35 7 l-32 -1 30 -8 c30 -8 30 -8
-7 -9 -21 0 -38 -5 -38 -10 0 -4 15 -7 33 -4 58 7 73 -2 72 -44 0 -21 -5 -45
-10 -53 -8 -13 -7 -13 9 -1 10 8 15 23 13 33 -4 13 0 18 14 18 11 0 19 -7 19
-16 0 -14 3 -14 15 -4 10 8 15 9 15 1 0 -16 44 -9 51 8 4 11 7 9 11 -7 6 -20
3 -22 -43 -22 -37 0 -51 -4 -58 -18 -7 -14 -6 -19 4 -19 8 0 13 5 12 11 -1 5
7 11 18 13 16 3 17 2 5 -6 -13 -9 -13 -11 3 -11 9 0 17 5 17 10 0 17 107 12
114 -5 3 -8 1 -15 -4 -15 -6 0 -10 5 -10 10 0 6 -12 10 -27 9 -26 -1 -26 -1
-5 -7 21 -7 21 -8 -10 -21 -18 -8 -27 -16 -21 -18 7 -3 11 -10 9 -16 -1 -7 -1
-9 1 -4 3 4 12 7 21 8 14 0 13 2 -3 10 l-20 9 20 -3 c12 -2 19 -10 19 -20 -2
-15 1 -15 13 -5 11 9 16 9 22 -1 6 -8 23 -11 52 -8 24 2 34 2 22 0 -12 -2 -21
-10 -19 -16 1 -7 1 -9 -1 -4 -6 10 -63 9 -63 -2 0 -4 11 -6 25 -3 16 3 25 0
25 -8 0 -7 -7 -10 -15 -6 -8 3 -15 1 -15 -4 0 -5 8 -11 18 -13 9 -3 -1 -5 -23
-6 -29 0 -36 2 -25 9 8 5 10 10 4 10 -16 0 -23 -10 -18 -25 3 -7 17 -11 32 -9
40 5 62 -5 62 -27 0 -10 4 -19 8 -19 5 0 7 17 5 37 -2 35 8 53 32 53 6 0 3 -5
-5 -10 -12 -7 -10 -11 10 -19 14 -5 18 -10 10 -10 -9 -1 -21 4 -27 10 -9 9
-11 5 -8 -17 2 -16 4 -33 5 -39 0 -5 6 -1 13 10 13 22 37 31 37 15 0 -5 -8
-11 -17 -11 -10 -1 -4 -5 12 -8 17 -4 38 -3 48 2 10 5 21 6 25 3 3 -3 0 -6 -7
-6 -7 0 -9 -5 -6 -10 4 -6 11 -8 16 -4 5 3 8 0 7 -7 -2 -7 8 -16 22 -20 l25
-7 -28 -1 c-16 -1 -26 -5 -22 -11 3 -6 1 -10 -5 -10 -7 0 -9 7 -6 16 3 8 0 21
-7 28 -14 14 -102 21 -93 7 3 -5 -2 -7 -11 -5 -10 2 -38 -3 -63 -11 l-45 -15
43 5 c30 3 41 1 36 -7 -4 -7 -3 -8 5 -4 6 4 9 12 6 17 -4 5 1 9 11 9 11 0 15
-6 11 -20 -4 -16 0 -20 18 -20 16 0 22 -6 21 -18 -1 -20 -20 -42 -35 -42 -5 0
-13 -4 -16 -10 -3 -5 0 -8 7 -6 37 12 119 16 113 6 -3 -6 -10 -8 -14 -6 -4 3
-13 1 -21 -5 -11 -6 -5 -9 20 -9 44 0 70 -14 45 -24 -9 -3 -26 -6 -38 -7 -21
0 -21 -1 -2 -9 17 -7 17 -9 3 -9 -10 -1 -18 -5 -18 -10 0 -5 9 -7 20 -4 11 3
20 9 20 14 0 5 8 9 18 8 10 0 12 -3 5 -6 -26 -10 -12 -21 22 -18 19 2 35 0 35
-4 0 -4 -14 -8 -32 -9 -18 -2 -36 -8 -40 -15 -10 -17 1 -24 13 -7 8 11 12 12
16 3 2 -7 12 -13 21 -13 15 0 15 2 2 10 -17 11 -1 13 24 4 34 -13 13 -23 -44
-21 -38 1 -56 -1 -49 -8 5 -5 27 -8 49 -6 26 2 40 -2 40 -9 0 -7 -7 -10 -15
-7 -8 4 -17 1 -21 -5 -5 -8 5 -9 34 -4 26 4 42 2 42 -4 0 -5 -8 -11 -17 -12
-10 0 5 -4 32 -8 l50 -7 -62 -1 c-37 -1 -63 2 -63 8 0 6 -9 10 -21 10 -16 0
-19 -4 -13 -22 3 -13 15 -31 25 -41 16 -15 19 -15 19 -2 0 8 -7 15 -15 15 -8
0 -15 5 -15 10 0 6 12 10 26 10 17 0 23 -4 18 -12 -6 -10 -4 -10 7 0 7 6 24
12 39 11 l25 -1 -25 -8 c-24 -8 -24 -8 -3 -9 16 -1 21 -6 17 -16 -5 -11 1 -15
22 -14 17 1 22 3 12 6 -24 6 -23 23 2 23 14 0 18 5 14 18 -5 13 -4 14 4 3 6
-8 8 -20 5 -28 -3 -7 1 -13 8 -14 8 -1 -4 -7 -26 -14 l-40 -13 40 -2 c22 -1
33 -4 24 -7 -24 -6 -12 -41 15 -46 11 -2 4 -5 -17 -6 -66 -2 -32 -16 37 -15
40 1 63 -3 59 -9 -3 -5 -26 -7 -51 -4 -25 3 -56 1 -69 -4 -14 -5 -23 -5 -23 1
0 6 -9 10 -20 10 -11 0 -20 7 -20 16 0 8 -4 13 -9 9 -6 -3 -9 -14 -8 -26 1
-21 33 -34 64 -26 57 16 68 18 54 9 -9 -7 -11 -16 -6 -28 5 -11 8 -26 7 -34
-1 -10 0 -11 4 -2 7 15 54 16 54 0 0 -9 3 -9 12 0 15 15 48 16 48 1 0 -6 -7
-9 -15 -5 -9 3 -15 0 -15 -10 0 -8 -4 -12 -10 -9 -5 3 -10 3 -11 -2 0 -4 -2
-16 -4 -25 -2 -10 1 -18 7 -18 6 0 8 7 4 15 -3 8 -1 15 4 15 6 0 11 -10 11
-22 1 -16 4 -11 9 12 4 19 8 27 9 18 1 -12 6 -15 18 -11 10 4 14 2 10 -5 -4
-6 1 -13 10 -16 10 -3 6 -4 -9 -2 -16 2 -28 -2 -28 -8 0 -7 17 -10 46 -7 27 2
41 6 34 11 -8 5 -9 10 -2 14 13 8 24 -8 17 -26 -4 -10 -17 -13 -42 -10 -24 3
-34 1 -29 -6 4 -6 14 -8 23 -5 11 4 14 3 9 -5 -4 -7 -2 -10 6 -7 23 8 128 11
128 3 0 -5 -24 -8 -54 -8 -30 0 -61 -3 -70 -6 -19 -7 -21 -22 -3 -21 52 2 120
-5 111 -11 -6 -4 -14 -14 -17 -22 -5 -13 -6 -13 -6 0 -1 19 -56 26 -67 8 -5
-7 -2 -9 8 -5 11 4 18 -2 23 -16 6 -22 6 -22 15 -2 5 11 9 14 9 8 1 -7 13 -13
29 -14 24 0 24 -1 7 -8 -11 -5 -23 -7 -27 -4 -5 2 -8 -2 -8 -10 0 -8 -10 -22
-23 -31 l-22 -17 23 11 c15 7 22 7 22 0 0 -5 -4 -10 -10 -10 -5 0 -10 -5 -10
-11 0 -5 4 -7 10 -4 6 3 10 2 10 -4 0 -12 -38 -25 -65 -23 -20 2 -20 2 0 -7
13 -5 34 -2 60 9 22 10 63 20 90 24 42 4 45 4 20 -5 -16 -5 -41 -11 -55 -13
-14 -2 -28 -4 -32 -5 -20 -3 -5 -18 15 -16 12 1 22 3 22 5 0 1 19 3 42 4 36 2
41 0 37 -17 -5 -26 -14 -35 -14 -14 0 10 -8 17 -20 17 -25 0 -26 -17 -2 -23
13 -4 12 -5 -5 -6 -12 0 -24 5 -27 12 -5 9 -7 9 -12 0 -3 -7 -18 -13 -32 -12
l-27 1 25 8 25 8 -25 1 c-14 1 -30 -7 -36 -16 -10 -17 -6 -18 54 -15 62 4 65
3 52 -14 -14 -16 -13 -17 4 -11 17 7 17 6 5 -10 -12 -15 -12 -16 4 -10 10 4
21 7 23 7 3 0 0 9 -6 20 -7 14 -7 20 0 20 5 0 10 -7 10 -15 0 -8 5 -15 11 -15
6 0 1 -9 -12 -20 -13 -10 -19 -19 -12 -20 6 0 15 4 18 10 4 6 13 5 24 -2 14
-9 16 -14 7 -24 -8 -9 -12 -8 -16 7 -5 18 -6 18 -32 -5 -16 -13 -28 -29 -28
-35 0 -7 -4 -9 -10 -6 -5 3 -10 1 -10 -4 0 -17 20 -13 27 5 3 8 12 13 19 10 9
-3 11 1 7 12 -5 14 -3 13 9 -2 8 -10 19 -17 24 -14 5 3 18 2 29 -3 15 -6 9 -8
-23 -8 -27 -1 -41 -5 -37 -11 4 -6 21 -9 38 -7 18 2 24 2 15 0 -10 -2 -15 -10
-11 -19 3 -8 1 -14 -3 -15 -39 -3 -89 -11 -92 -14 -3 -2 23 -4 57 -3 54 1 61
4 55 20 -3 10 0 18 6 18 19 0 7 -54 -15 -68 -19 -13 -19 -13 2 -9 13 3 23 1
23 -4 0 -5 -5 -9 -12 -9 -6 0 -8 -3 -4 -7 4 -4 26 -7 49 -6 32 1 25 -2 -28
-12 -68 -12 -69 -13 -23 -14 26 0 50 -5 53 -11 3 -5 11 -10 17 -10 7 0 6 6 -2
15 -10 12 -10 15 4 15 9 0 16 -6 16 -14 0 -10 7 -12 23 -9 12 3 19 3 16 -1 -3
-3 -26 -9 -50 -12 -45 -6 -65 -14 -36 -14 22 0 22 -27 0 -34 -10 -3 2 -3 26
-1 49 5 62 12 42 24 -10 7 -9 10 3 14 10 4 16 1 16 -8 0 -8 7 -15 15 -15 8 0
24 -9 35 -20 11 -11 16 -20 11 -20 -5 0 -14 7 -21 15 -7 8 -22 14 -34 14 -16
-1 -17 -2 -4 -6 11 -3 15 -10 11 -20 -4 -11 -2 -14 5 -9 7 4 19 3 28 -2 12 -6
8 -9 -15 -9 -17 0 -31 4 -31 8 0 4 -9 5 -20 2 -11 -3 -20 -9 -20 -13 0 -5 9
-6 20 -3 16 4 19 2 14 -11 -3 -9 -1 -16 6 -16 6 0 8 5 4 11 -4 7 -1 10 7 7 8
-3 13 -10 12 -16 -2 -6 4 -9 13 -5 13 5 13 7 2 14 -10 7 -9 9 5 9 9 0 17 -5
17 -11 0 -5 4 -8 9 -4 5 3 13 0 17 -6 4 -7 3 -9 -4 -5 -6 3 -13 2 -17 -4 -4
-6 -9 -8 -13 -6 -4 2 -13 -3 -21 -11 -12 -13 -11 -14 10 -9 19 6 20 5 8 -3 -9
-6 -30 -12 -48 -13 -17 -1 -31 -6 -31 -10 0 -5 15 -6 33 -3 23 4 28 3 17 -4
-8 -6 -31 -13 -51 -16 -24 -4 -39 -13 -42 -25 -3 -10 -15 -20 -28 -23 -17 -3
-15 -4 8 -4 17 1 29 5 27 9 -3 4 7 8 23 9 l28 1 -25 7 c-21 7 -17 9 33 20 31
7 55 16 52 21 -3 4 4 10 15 13 24 6 27 -8 4 -17 -8 -3 -13 -10 -10 -15 3 -5 0
-9 -7 -8 -33 1 -57 -4 -57 -12 0 -10 18 -9 35 0 6 3 21 3 35 -2 21 -6 21 -7 5
-8 -11 -1 -27 -6 -35 -11 -10 -7 3 -8 43 -5 32 3 57 1 57 -4 0 -5 -59 -10
-137 -10 -75 -1 -139 -4 -142 -6 -2 -3 57 -5 132 -5 75 0 138 -4 141 -8 2 -4
-24 -6 -60 -5 -41 2 -64 -1 -64 -8 0 -6 8 -8 20 -4 14 5 20 2 20 -9 0 -19 36
-22 43 -3 2 6 8 8 13 4 14 -13 -18 -27 -63 -27 -24 0 -43 -5 -43 -11 0 -5 6
-7 13 -3 8 5 9 4 2 -4 -5 -6 -21 -12 -35 -15 -14 -2 1 -4 33 -4 57 1 76 12 35
20 -20 4 -19 4 5 6 21 1 27 -4 27 -19 0 -15 -7 -20 -27 -21 -22 -2 -19 -3 12
-9 l40 -7 -45 -3 c-32 -2 -37 -4 -17 -7 15 -2 27 -9 27 -14 0 -5 13 -9 29 -9
17 0 33 -5 36 -10 4 -7 -3 -9 -19 -6 -19 3 -26 0 -27 -12 0 -14 -2 -13 -9 3
-7 17 -9 17 -9 3 -1 -10 -7 -18 -13 -18 -9 0 -9 -3 1 -9 9 -6 22 -6 33 0 10 6
23 7 28 4 6 -3 10 -1 10 4 0 6 7 11 16 11 14 0 14 -2 0 -15 -8 -8 -19 -15 -25
-15 -6 0 -11 -4 -11 -10 0 -5 -8 -10 -17 -10 -15 0 -14 2 3 16 18 15 18 15 -5
2 -37 -22 -36 -35 3 -32 20 2 38 -2 42 -8 5 -8 -2 -9 -22 -6 -16 3 -40 2 -54
-3 -24 -8 -24 -8 5 -7 51 1 69 -2 62 -9 -4 -3 -33 -5 -64 -5 -37 2 -53 -1 -44
-7 7 -5 18 -15 23 -22 8 -11 9 -10 4 3 -5 16 1 17 44 15 28 -1 50 -6 50 -11 0
-4 -13 -6 -30 -4 -16 3 -30 2 -30 -2 0 -4 -10 -12 -22 -19 l-23 -11 24 6 c17
4 21 3 16 -6 -5 -7 -1 -11 11 -10 11 1 37 1 59 -1 34 -2 32 -3 -20 -8 -33 -3
-61 -3 -63 2 -2 4 -16 6 -30 6 -24 -2 -24 -2 -4 -6 12 -2 22 -8 22 -13 0 -5
24 -7 53 -5 42 2 48 1 30 -7 -24 -12 -32 -30 -11 -26 7 2 12 -1 13 -7 0 -5 4
-16 8 -23 5 -7 3 -12 -5 -12 -10 0 -9 -3 2 -11 12 -9 11 -10 -8 -6 -12 3 -20
1 -16 -4 3 -5 0 -9 -5 -9 -11 0 -15 13 -12 37 1 7 -3 13 -9 13 -5 0 -10 -5
-10 -11 0 -5 -6 -7 -12 -4 -7 4 -4 -1 7 -10 17 -13 18 -17 5 -25 -9 -5 972 -9
2493 -10 l2507 0 0 5120 0 5120 -5120 0 -5120 0 0 -2944z m7280 -731 l0 -55
-39 0 c-61 0 -71 -21 -71 -157 l0 -113 56 0 55 0 -3 -47 -3 -48 -54 -3 -54 -3
5 -594 c5 -516 4 -594 -9 -599 -8 -3 -39 -6 -69 -6 l-54 0 -2 508 c-1 279 -1
546 -1 595 l1 87 -44 0 -44 0 0 50 0 50 39 0 39 0 4 138 c3 122 6 141 26 174
31 49 91 78 165 78 l57 0 0 -55z m-1442 -48 c25 -16 49 -44 63 -74 22 -45 24
-61 27 -252 3 -161 1 -206 -10 -212 -7 -5 -38 -9 -69 -9 -54 0 -57 2 -64 27
-4 16 -6 86 -5 158 3 213 2 221 -23 251 -19 21 -31 26 -66 26 -47 -1 -74 -19
-97 -64 -22 -42 -21 -1286 1 -1328 27 -52 130 -53 163 -2 14 22 18 61 22 247
l5 220 73 3 74 3 -4 -223 c-3 -207 -5 -227 -26 -273 -28 -61 -47 -82 -96 -107
-49 -25 -166 -35 -226 -18 -56 15 -114 72 -129 125 -7 27 -11 247 -11 691 0
723 -1 712 66 780 47 46 110 64 211 61 68 -3 88 -8 121 -30z m1674 -119 l3
-143 58 3 57 2 0 -50 0 -50 -37 0 c-21 0 -48 -3 -60 -6 l-22 -6 6 -526 c6
-593 2 -562 80 -562 l43 0 0 -39 c0 -67 -4 -71 -82 -71 -87 0 -130 19 -155 68
-17 34 -18 80 -23 582 l-5 545 -38 -3 -38 -4 3 54 c3 52 3 53 38 58 l35 5 -2
143 -1 142 69 0 68 0 3 -142z m2060 74 c14 -8 36 -32 47 -52 45 -81 14 -173
-73 -215 -69 -33 -116 -23 -168 36 -33 36 -38 48 -38 91 0 129 122 204 232
140z m-4332 -182 l0 -140 56 0 55 0 -3 -42 -3 -43 -50 -5 -50 -5 -3 -514 c-3
-581 -5 -561 68 -561 l40 0 0 -44 c0 -25 -4 -48 -10 -51 -5 -3 -39 -6 -76 -6
-78 -1 -108 16 -137 74 -17 35 -19 72 -18 566 l1 530 -43 3 c-42 3 -42 3 -45
45 l-3 42 43 3 43 3 -2 137 -3 137 48 4 c26 2 57 4 70 5 22 2 22 1 22 -138z
m3781 14 c57 -33 72 -78 82 -252 5 -84 6 -160 3 -168 -4 -10 -23 -14 -70 -14
l-65 0 -3 154 c-3 135 -5 157 -22 175 -29 32 -95 29 -127 -5 -23 -24 -24 -33
-24 -142 0 -108 2 -121 27 -172 16 -30 71 -113 124 -185 53 -71 110 -159 127
-195 29 -60 32 -75 35 -190 4 -135 -4 -186 -41 -241 -68 -103 -297 -108 -369
-9 -27 36 -39 136 -36 280 l3 125 61 3 62 3 4 -158 c4 -171 10 -193 59 -213
17 -7 39 -8 60 -3 50 13 69 57 69 158 0 144 -29 213 -160 385 -83 108 -115
165 -140 249 -19 62 -22 88 -17 170 3 53 11 113 17 134 16 52 72 113 118 126
58 16 183 8 223 -15z m-5218 -226 l47 3 0 -40 0 -40 -47 -3 -48 -3 -3 -509
c-2 -569 -4 -556 62 -556 38 0 44 -11 38 -67 -4 -33 -5 -33 -58 -33 -72 0
-118 20 -141 62 -17 31 -18 68 -15 566 l3 532 -41 0 -40 0 0 40 0 40 40 0 40
0 1 43 c1 23 1 46 0 51 -1 4 4 15 11 24 11 13 11 15 -2 7 -12 -6 -13 -5 -2 6
14 16 16 33 2 24 -5 -3 -10 -2 -10 4 0 18 20 23 26 6 5 -13 9 -14 15 -4 5 8 0
19 -12 29 -10 10 -16 20 -12 24 3 3 14 0 22 -8 11 -10 21 -12 31 -6 12 8 10
10 -8 10 -33 0 -22 24 14 30 l29 5 5 -120 5 -120 48 3z m4807 174 l0 -69 -38
-11 c-21 -6 -50 -24 -65 -39 -56 -59 -57 -69 -57 -628 l0 -513 -61 -7 c-33 -4
-63 -4 -67 0 -12 12 -20 1299 -8 1307 6 4 35 8 64 8 l52 0 0 -67 0 -67 33 54
c35 59 86 100 123 100 23 0 24 -3 24 -68z m-573 22 c13 -2 38 -18 58 -35 57
-51 65 -95 65 -374 l0 -242 -61 -7 c-34 -3 -107 -6 -161 -6 l-99 0 3 -243 c3
-211 5 -246 20 -270 34 -50 132 -45 157 9 7 16 11 91 11 198 l0 173 61 7 c36
4 66 3 71 -2 6 -6 9 -81 7 -184 -4 -171 -5 -176 -34 -233 -40 -79 -92 -107
-197 -108 -92 0 -139 15 -177 58 -54 62 -56 77 -56 610 l0 490 30 60 c20 40
41 66 63 79 53 30 152 38 239 20z m-1270 -58 c39 -20 71 -57 85 -97 8 -24 13
-205 16 -611 l3 -578 -60 0 -61 0 0 52 0 52 -29 -46 c-72 -114 -250 -101 -293
21 -9 25 -13 100 -13 236 l0 200 30 59 c18 36 64 94 122 154 69 70 103 115
129 168 35 70 36 75 33 167 -5 115 -18 137 -84 137 -32 0 -47 -6 -66 -26 -22
-24 -24 -35 -29 -162 l-5 -137 -63 -3 -64 -3 4 143 c3 125 6 149 26 190 38 77
114 111 229 103 34 -2 75 -11 90 -19z m-407 -63 l0 -68 -45 -19 c-47 -19 -78
-54 -98 -109 -8 -22 -12 -181 -12 -537 l0 -505 -67 -3 -67 -3 -1 646 0 645 64
0 64 0 -5 -67 -4 -68 31 55 c40 72 67 92 128 99 8 1 12 -18 12 -66z m-1500
-28 c16 -9 38 -30 47 -48 17 -29 18 -80 21 -618 l3 -586 -57 -7 c-31 -4 -59
-4 -62 -1 -4 3 -7 262 -8 576 -1 432 -5 573 -14 584 -17 21 -57 19 -96 -5 -23
-15 -39 -38 -56 -78 -22 -56 -22 -65 -26 -569 l-4 -511 -55 -4 c-30 -1 -56 -1
-57 2 -1 3 -3 287 -5 633 l-2 627 38 0 c21 0 48 3 60 6 21 6 22 2 25 -52 l3
-59 28 48 c18 30 41 54 60 62 43 19 121 19 157 0z m-599 -41 c43 -22 77 -70
85 -120 3 -25 7 -148 8 -274 l1 -228 -147 -7 c-99 -5 -148 -11 -149 -19 -4
-67 5 -434 11 -452 14 -37 54 -57 96 -50 52 10 61 41 66 226 l5 155 62 3 61 3
0 -122 c0 -218 -25 -293 -110 -337 -38 -20 -56 -23 -120 -19 -101 5 -135 24
-166 92 l-25 54 3 483 c3 468 4 484 24 529 24 52 70 85 136 98 51 11 123 4
159 -15z m-847 -58 c10 -12 22 -31 27 -44 5 -13 9 -280 9 -593 l0 -569 -55 0
-56 0 0 563 c0 309 0 570 0 580 0 9 -5 15 -11 11 -6 -4 -5 3 2 16 7 12 21 25
31 27 10 3 19 10 19 15 0 5 -4 7 -8 4 -5 -3 -9 1 -9 8 0 18 27 8 51 -18z
m-1718 3 c3 -22 5 -23 13 -10 6 9 11 10 15 2 4 -6 2 -11 -3 -11 -6 0 -11 -5
-11 -11 0 -6 6 -9 13 -6 9 3 13 -19 15 -88 3 -83 2 -93 -15 -97 -20 -5 -116
25 -107 34 3 3 -1 6 -8 5 -36 -1 -59 4 -53 13 3 6 20 10 36 10 20 0 28 4 23
11 -5 8 -2 9 11 2 10 -6 26 -8 36 -6 18 5 21 17 22 100 0 12 4 20 8 17 11 -6
12 10 2 20 -4 3 -8 14 -9 22 -1 9 1 13 4 9 4 -4 8 -11 8 -16z m1432 -52 c-1
-23 5 -41 20 -57 13 -14 20 -31 16 -40 -18 -44 -24 -188 -24 -607 l0 -463 -56
0 -56 0 5 588 c3 323 6 587 6 587 1 0 13 2 28 3 l27 2 -22 -23 c-24 -25 -31
-47 -8 -25 7 7 23 20 35 28 11 8 21 20 21 27 0 7 2 13 5 13 3 0 5 -15 3 -33z
m-1178 -17 c0 -5 7 -10 16 -10 8 0 13 4 10 9 -8 12 13 9 38 -6 19 -10 19 -11
-1 -17 -24 -8 -24 -28 -1 -55 11 -12 15 -37 14 -84 -1 -42 2 -63 9 -59 5 3 4
-1 -3 -10 -7 -9 -9 -19 -4 -22 5 -3 10 -171 11 -378 2 -393 6 -424 49 -447 30
-16 88 -13 106 5 40 39 45 84 46 417 l0 77 65 0 65 0 0 -202 c-1 -220 -8 -273
-45 -330 -36 -54 -75 -71 -175 -76 -74 -3 -91 0 -129 20 -101 52 -105 76 -97
632 5 391 7 440 22 457 9 10 20 16 24 14 5 -3 7 3 5 12 -2 10 -4 21 -4 25 -1
4 -10 10 -21 13 -21 7 -28 25 -10 25 6 0 10 -4 10 -10z m921 -42 c0 -7 2 -22
4 -33 9 -42 5 -932 -3 -961 -16 -51 -40 -90 -67 -108 -70 -46 -216 -39 -267
12 -45 44 -49 98 -46 516 2 310 5 382 17 393 11 12 15 12 22 1 5 -8 3 -17 -5
-23 -11 -9 -11 -12 0 -23 7 -7 11 -18 8 -26 -3 -9 1 -13 13 -13 15 2 18 -5 17
-35 0 -21 3 -38 8 -38 7 0 12 23 9 43 0 4 3 7 9 7 10 0 9 -20 -3 -50 -13 -35
-14 -59 -4 -57 6 1 13 -8 15 -20 2 -14 -2 -23 -10 -23 -9 0 -10 -2 -1 -8 8 -5
12 -83 15 -273 3 -228 5 -268 20 -291 33 -50 109 -42 136 14 9 20 14 120 17
384 5 324 7 358 23 371 16 14 16 14 0 9 -14 -4 -18 0 -18 19 0 14 6 25 13 26
10 0 10 2 0 6 -19 7 -16 23 5 24 14 0 14 2 2 7 -8 4 -16 19 -18 35 -3 21 1 27
16 27 14 0 21 9 26 30 3 17 10 30 15 30 6 0 8 -8 4 -17 -5 -15 -3 -14 10 2 13
16 13 21 2 23 -8 2 -11 10 -8 18 6 17 23 19 24 2z m-1361 -37 c0 -6 -11 -9
-24 -8 -14 1 -25 -2 -25 -7 1 -15 -54 -46 -113 -62 -32 -9 -55 -20 -53 -25 3
-4 -4 -10 -15 -14 -30 -9 -116 -111 -144 -171 -80 -168 -72 -350 20 -471 28
-37 94 -83 119 -83 21 0 19 -43 -3 -63 -16 -15 -21 -14 -57 2 -80 37 -179 166
-201 261 -10 46 -13 211 -3 230 4 8 22 50 40 93 17 43 47 95 65 115 50 56 98
102 107 102 7 0 20 9 51 37 8 7 16 9 20 6 3 -4 6 -2 6 4 0 19 120 59 188 62
12 1 22 -3 22 -8z m7392 -1103 c22 -6 61 -31 88 -55 82 -73 120 -197 120 -394
0 -227 -58 -362 -184 -426 -42 -22 -69 -27 -153 -31 l-103 -5 -1 54 c0 30 -2
63 -4 74 -3 14 -7 713 -5 788 0 12 199 8 242 -5z m-732 -423 l5 -420 135 0
135 0 -4 -30 c-1 -16 -5 -33 -8 -37 -2 -5 -80 -8 -172 -8 l-168 0 -6 203 c-4
111 -7 315 -7 454 0 276 -3 263 60 260 l25 -2 5 -420z m-350 -50 l0 -455 -40
0 c-23 0 -43 5 -45 13 -3 6 -6 211 -7 455 l-3 442 48 0 47 0 0 -455z m-331
-10 l4 -455 -47 0 -46 0 0 243 c0 134 -3 339 -7 455 l-6 212 49 0 49 0 4 -455z
m-329 72 c0 -422 -4 -452 -65 -506 -83 -73 -236 -64 -294 18 -35 49 -41 119
-41 492 l0 359 45 0 45 0 0 -370 c0 -398 2 -420 51 -454 13 -9 41 -16 62 -16
54 0 93 40 103 106 4 26 4 202 1 391 -3 188 -2 344 1 347 3 3 25 6 49 6 l43 0
0 -373z m-659 336 c6 -6 5 -20 -1 -39 -10 -29 -11 -29 -83 -29 -62 0 -79 -4
-113 -26 -78 -52 -124 -179 -124 -344 0 -253 63 -373 201 -383 l59 -4 0 171 0
171 -60 0 -60 0 0 35 0 35 85 2 c47 1 92 2 101 2 14 1 17 -26 21 -236 3 -172
1 -238 -7 -243 -7 -4 -49 -10 -94 -12 -161 -11 -254 53 -310 212 -24 65 -33
295 -17 389 27 154 113 269 231 307 32 11 158 5 171 -8z"/>
<path d="M9433 6465 c-95 -41 -97 -201 -4 -250 40 -20 79 -19 119 5 51 32 74
76 69 137 -4 59 -24 88 -74 109 -40 17 -69 17 -110 -1z"/>
<path d="M7869 6151 l-29 -29 0 -213 0 -212 38 7 c20 3 63 6 95 6 l57 0 0 188
c0 253 -10 282 -95 282 -27 0 -44 -8 -66 -29z"/>
<path d="M6722 5684 c-1 -6 -38 -50 -82 -98 -44 -49 -83 -100 -88 -115 -4 -14
-7 -110 -7 -212 0 -219 6 -239 66 -239 29 0 43 7 63 30 42 51 49 92 53 315 4
182 1 353 -5 319z"/>
<path d="M4095 5998 c-43 -38 -48 -101 -36 -445 1 -20 6 -23 39 -23 20 0 61 3
90 7 l53 6 -3 219 c-3 217 -3 220 -27 239 -32 26 -84 24 -116 -3z"/>
<path d="M8757 4713 c-14 -3 -17 -11 -13 -26 3 -12 6 -183 6 -379 l0 -358 43
0 c90 1 173 67 203 165 21 68 30 264 15 351 -22 127 -85 226 -153 239 -57 11
-83 13 -101 8z"/>
<path d="M1476 4683 c-12 -12 -6 -110 10 -163 19 -65 43 -97 92 -127 38 -24
96 -30 107 -13 4 6 11 7 17 4 7 -4 8 -2 4 5 -4 6 -12 9 -17 6 -5 -4 -9 -1 -9
6 0 7 -3 9 -7 6 -8 -8 -35 42 -28 53 3 5 1 10 -5 12 -5 1 -11 12 -13 23 -2 11
-8 28 -12 39 -5 11 -3 26 4 38 7 11 8 17 3 14 -5 -3 -17 5 -26 19 -9 14 -14
25 -11 25 9 0 -27 35 -37 36 -4 1 -15 2 -24 3 -8 0 -13 5 -10 9 5 9 -29 13
-38 5z"/>
<path d="M5268 4611 c-214 -70 -358 -264 -358 -480 0 -165 63 -291 190 -383
83 -59 169 -82 294 -76 91 4 109 8 177 41 91 43 160 103 210 179 54 84 72 162
68 294 -4 101 -7 115 -41 186 -48 102 -114 168 -214 215 -68 32 -86 37 -172
40 -75 2 -110 -1 -154 -16z m243 -197 l56 -30 16 28 c21 36 35 35 83 -6 39
-34 39 -34 22 -63 -10 -17 -26 -28 -40 -29 -15 0 -22 -5 -20 -15 2 -8 11 -43
20 -78 15 -60 14 -69 -1 -128 -41 -156 -173 -248 -329 -229 -108 14 -219 108
-248 210 -37 133 39 288 173 352 45 22 63 25 132 21 67 -3 91 -9 136 -33z"/>
<path d="M5281 4334 c-159 -80 -156 -308 4 -370 125 -47 266 57 265 195 -1 91
-36 150 -105 182 -55 26 -102 23 -164 -7z"/>
<path d="M1680 4519 c9 -15 8 -24 -1 -35 -9 -12 -9 -13 3 -9 8 3 19 -3 27 -17
6 -13 25 -32 41 -43 17 -11 30 -23 30 -27 0 -5 74 -8 165 -8 l165 0 6 24 c3
13 4 38 2 57 l-3 34 -170 -3 c-166 -3 -171 -3 -218 22 -58 31 -61 32 -47 5z"/>
<path d="M1924 4111 c-137 -6 -164 -15 -164 -53 0 -65 40 -76 235 -67 125 7
152 11 162 25 17 24 16 55 -3 82 -12 17 -24 22 -57 20 -23 -1 -101 -4 -173 -7z"/>
<path d="M1894 3896 c-9 -39 14 -95 50 -117 24 -16 41 -19 76 -14 25 4 57 7
71 7 26 1 26 3 28 75 l2 73 -110 0 c-109 0 -111 0 -117 -24z"/>
</g>
</svg>
